<svg xmlns="http://www.w3.org/2000/svg" xmlns:xlink="http://www.w3.org/1999/xlink" width="500" zoomAndPan="magnify" viewBox="0 0 375 149.999998" height="200" preserveAspectRatio="xMidYMid meet" version="1.0"><defs><g/></defs><g fill="#ffffff" fill-opacity="1"><g transform="translate(4.621275, 93.056156)"><g><path d="M 16.09375 0.5625 C 11.78125 0.5625 8.492188 -0.765625 6.234375 -3.421875 C 3.972656 -6.078125 2.71875 -9.726562 2.46875 -14.375 L 8.8125 -16.09375 C 9.019531 -12.800781 9.660156 -10.140625 10.734375 -8.109375 C 11.816406 -6.078125 13.601562 -5.0625 16.09375 -5.0625 C 17.945312 -5.0625 19.347656 -5.578125 20.296875 -6.609375 C 21.253906 -7.648438 21.734375 -9.144531 21.734375 -11.09375 C 21.734375 -13.195312 21.289062 -14.945312 20.40625 -16.34375 C 19.519531 -17.738281 18.101562 -19.28125 16.15625 -20.96875 L 7.546875 -28.578125 C 5.804688 -30.097656 4.546875 -31.734375 3.765625 -33.484375 C 2.984375 -35.234375 2.59375 -37.378906 2.59375 -39.921875 C 2.59375 -43.679688 3.671875 -46.59375 5.828125 -48.65625 C 7.984375 -50.726562 10.921875 -51.765625 14.640625 -51.765625 C 18.691406 -51.765625 21.75 -50.6875 23.8125 -48.53125 C 25.882812 -46.375 27.132812 -43.035156 27.5625 -38.515625 L 21.484375 -36.875 C 21.265625 -39.875 20.679688 -42.1875 19.734375 -43.8125 C 18.785156 -45.4375 17.085938 -46.25 14.640625 -46.25 C 12.816406 -46.25 11.421875 -45.773438 10.453125 -44.828125 C 9.484375 -43.878906 9 -42.472656 9 -40.609375 C 9 -39.085938 9.25 -37.8125 9.75 -36.78125 C 10.257812 -35.75 11.128906 -34.703125 12.359375 -33.640625 L 21.03125 -26.046875 C 23.269531 -24.054688 25.054688 -21.898438 26.390625 -19.578125 C 27.722656 -17.253906 28.390625 -14.613281 28.390625 -11.65625 C 28.390625 -7.894531 27.25 -4.914062 24.96875 -2.71875 C 22.6875 -0.53125 19.726562 0.5625 16.09375 0.5625 Z M 16.09375 0.5625 "/></g></g></g><g fill="#ffffff" fill-opacity="1"><g transform="translate(34.593836, 93.056156)"><g><path d="M 4.8125 -51.328125 L 11.84375 -51.328125 L 20.90625 -9.6875 L 30.03125 -51.328125 L 37 -51.328125 L 37.953125 0 L 32.1875 0 L 31.609375 -37.25 L 22.9375 0 L 18.875 0 L 10.265625 -37.25 L 9.6875 0 L 3.859375 0 Z M 4.8125 -51.328125 "/></g></g></g><g fill="#ffffff" fill-opacity="1"><g transform="translate(76.416017, 93.056156)"><g><path d="M 12.109375 -51.328125 L 19 -51.328125 L 29.96875 0 L 23.1875 0 L 20.84375 -12.921875 L 10.390625 -12.921875 L 7.921875 0 L 1.203125 0 Z M 19.890625 -18.0625 L 15.59375 -41.1875 L 11.34375 -18.0625 Z M 19.890625 -18.0625 "/></g></g></g><g fill="#ffffff" fill-opacity="1"><g transform="translate(107.592543, 93.056156)"><g><path d="M 12.109375 -51.328125 L 19 -51.328125 L 29.96875 0 L 23.1875 0 L 20.84375 -12.921875 L 10.390625 -12.921875 L 7.921875 0 L 1.203125 0 Z M 19.890625 -18.0625 L 15.59375 -41.1875 L 11.34375 -18.0625 Z M 19.890625 -18.0625 "/></g></g></g><g fill="#ffffff" fill-opacity="1"><g transform="translate(138.769069, 93.056156)"><g><path d="M 3.984375 -51.328125 L 11.15625 -51.328125 L 11.15625 -27.125 L 22.9375 -51.328125 L 29.59375 -51.328125 L 19.453125 -28.703125 L 31.234375 0 L 24.265625 0 L 14.453125 -24.078125 L 11.15625 -18.125 L 11.15625 0 L 3.984375 0 Z M 3.984375 -51.328125 "/></g></g></g><g fill="#ffffff" fill-opacity="1"><g transform="translate(170.135701, 93.056156)"><g><path d="M 4.8125 -51.328125 L 11.84375 -51.328125 L 20.90625 -9.6875 L 30.03125 -51.328125 L 37 -51.328125 L 37.953125 0 L 32.1875 0 L 31.609375 -37.25 L 22.9375 0 L 18.875 0 L 10.265625 -37.25 L 9.6875 0 L 3.859375 0 Z M 4.8125 -51.328125 "/></g></g></g><g fill="#ffffff" fill-opacity="1"><g transform="translate(211.957882, 93.056156)"><g><path d="M 12.109375 -51.328125 L 19 -51.328125 L 29.96875 0 L 23.1875 0 L 20.84375 -12.921875 L 10.390625 -12.921875 L 7.921875 0 L 1.203125 0 Z M 19.890625 -18.0625 L 15.59375 -41.1875 L 11.34375 -18.0625 Z M 19.890625 -18.0625 "/></g></g></g><g fill="#ffffff" fill-opacity="1"><g transform="translate(243.134408, 93.056156)"><g><path d="M 3.984375 -51.328125 L 11.15625 -51.328125 L 11.15625 -27.125 L 22.9375 -51.328125 L 29.59375 -51.328125 L 19.453125 -28.703125 L 31.234375 0 L 24.265625 0 L 14.453125 -24.078125 L 11.15625 -18.125 L 11.15625 0 L 3.984375 0 Z M 3.984375 -51.328125 "/></g></g></g><g fill="#ffffff" fill-opacity="1"><g transform="translate(274.501055, 93.056156)"><g><path d="M 3.984375 -51.328125 L 23.890625 -51.328125 L 23.890625 -46 L 11.15625 -46 L 11.15625 -29.015625 L 21.484375 -29.015625 L 21.484375 -23.953125 L 11.15625 -23.953125 L 11.15625 -5.125 L 24.015625 -5.125 L 24.015625 0 L 3.984375 0 Z M 3.984375 -51.328125 "/></g></g></g><g fill="#ffffff" fill-opacity="1"><g transform="translate(300.291391, 93.056156)"><g><path d="M 3.984375 -51.328125 L 14.3125 -51.328125 C 19.507812 -51.328125 23.320312 -50.257812 25.75 -48.125 C 28.1875 -45.988281 29.40625 -42.515625 29.40625 -37.703125 C 29.40625 -31.109375 27.289062 -27.113281 23.0625 -25.71875 L 30.34375 0 L 23.4375 0 L 16.734375 -24.078125 L 11.15625 -24.078125 L 11.15625 0 L 3.984375 0 Z M 13.875 -29.203125 C 16.957031 -29.203125 19.164062 -29.816406 20.5 -31.046875 C 21.832031 -32.273438 22.5 -34.492188 22.5 -37.703125 C 22.5 -39.804688 22.265625 -41.460938 21.796875 -42.671875 C 21.328125 -43.878906 20.5 -44.765625 19.3125 -45.328125 C 18.132812 -45.898438 16.46875 -46.1875 14.3125 -46.1875 L 11.15625 -46.1875 L 11.15625 -29.203125 Z M 13.875 -29.203125 "/></g></g></g><g fill="#ffffff" fill-opacity="1"><g transform="translate(333.178851, 93.056156)"><g><path d="M 16.09375 0.5625 C 11.78125 0.5625 8.492188 -0.765625 6.234375 -3.421875 C 3.972656 -6.078125 2.71875 -9.726562 2.46875 -14.375 L 8.8125 -16.09375 C 9.019531 -12.800781 9.660156 -10.140625 10.734375 -8.109375 C 11.816406 -6.078125 13.601562 -5.0625 16.09375 -5.0625 C 17.945312 -5.0625 19.347656 -5.578125 20.296875 -6.609375 C 21.253906 -7.648438 21.734375 -9.144531 21.734375 -11.09375 C 21.734375 -13.195312 21.289062 -14.945312 20.40625 -16.34375 C 19.519531 -17.738281 18.101562 -19.28125 16.15625 -20.96875 L 7.546875 -28.578125 C 5.804688 -30.097656 4.546875 -31.734375 3.765625 -33.484375 C 2.984375 -35.234375 2.59375 -37.378906 2.59375 -39.921875 C 2.59375 -43.679688 3.671875 -46.59375 5.828125 -48.65625 C 7.984375 -50.726562 10.921875 -51.765625 14.640625 -51.765625 C 18.691406 -51.765625 21.75 -50.6875 23.8125 -48.53125 C 25.882812 -46.375 27.132812 -43.035156 27.5625 -38.515625 L 21.484375 -36.875 C 21.265625 -39.875 20.679688 -42.1875 19.734375 -43.8125 C 18.785156 -45.4375 17.085938 -46.25 14.640625 -46.25 C 12.816406 -46.25 11.421875 -45.773438 10.453125 -44.828125 C 9.484375 -43.878906 9 -42.472656 9 -40.609375 C 9 -39.085938 9.25 -37.8125 9.75 -36.78125 C 10.257812 -35.75 11.128906 -34.703125 12.359375 -33.640625 L 21.03125 -26.046875 C 23.269531 -24.054688 25.054688 -21.898438 26.390625 -19.578125 C 27.722656 -17.253906 28.390625 -14.613281 28.390625 -11.65625 C 28.390625 -7.894531 27.25 -4.914062 24.96875 -2.71875 C 22.6875 -0.53125 19.726562 0.5625 16.09375 0.5625 Z M 16.09375 0.5625 "/></g></g></g><g fill="#ffffff" fill-opacity="1"><g transform="translate(80.245282, 115.524145)"><g><path d="M 2.40625 -2.734375 C 2.40625 -2.304688 2.488281 -2.003906 2.65625 -1.828125 C 2.832031 -1.648438 3.070312 -1.5625 3.375 -1.5625 C 3.664062 -1.5625 3.898438 -1.648438 4.078125 -1.828125 C 4.253906 -2.003906 4.34375 -2.304688 4.34375 -2.734375 L 4.34375 -9.1875 C 4.34375 -9.613281 4.253906 -9.914062 4.078125 -10.09375 C 3.898438 -10.269531 3.664062 -10.359375 3.375 -10.359375 C 3.070312 -10.359375 2.832031 -10.269531 2.65625 -10.09375 C 2.488281 -9.914062 2.40625 -9.613281 2.40625 -9.1875 Z M 0.53125 -9.0625 C 0.53125 -10.03125 0.773438 -10.769531 1.265625 -11.28125 C 1.753906 -11.800781 2.457031 -12.0625 3.375 -12.0625 C 4.289062 -12.0625 4.992188 -11.800781 5.484375 -11.28125 C 5.972656 -10.769531 6.21875 -10.03125 6.21875 -9.0625 L 6.21875 -2.859375 C 6.21875 -1.890625 5.972656 -1.144531 5.484375 -0.625 C 4.992188 -0.113281 4.289062 0.140625 3.375 0.140625 C 2.457031 0.140625 1.753906 -0.113281 1.265625 -0.625 C 0.773438 -1.144531 0.53125 -1.890625 0.53125 -2.859375 Z M 0.53125 -9.0625 "/></g></g></g><g fill="#ffffff" fill-opacity="1"><g transform="translate(89.814207, 115.524145)"><g><path d="M 2.34375 -8.640625 L 2.34375 0 L 0.671875 0 L 0.671875 -11.921875 L 3.015625 -11.921875 L 4.9375 -4.78125 L 4.9375 -11.921875 L 6.609375 -11.921875 L 6.609375 0 L 4.6875 0 Z M 2.34375 -8.640625 "/></g></g></g><g fill="#ffffff" fill-opacity="1"><g transform="translate(99.910858, 115.524145)"><g><path d="M 3.515625 -2.203125 L 4.9375 -11.921875 L 6.65625 -11.921875 L 4.8125 0 L 2.03125 0 L 0.1875 -11.921875 L 2.078125 -11.921875 Z M 3.515625 -2.203125 "/></g></g></g><g fill="#ffffff" fill-opacity="1"><g transform="translate(109.581916, 115.524145)"><g><path d="M 2.546875 -6.890625 L 5.125 -6.890625 L 5.125 -5.1875 L 2.546875 -5.1875 L 2.546875 -1.703125 L 5.796875 -1.703125 L 5.796875 0 L 0.6875 0 L 0.6875 -11.921875 L 5.796875 -11.921875 L 5.796875 -10.21875 L 2.546875 -10.21875 Z M 2.546875 -6.890625 "/></g></g></g><g fill="#ffffff" fill-opacity="1"><g transform="translate(118.67419, 115.524145)"><g><path d="M 4.59375 0 C 4.570312 -0.0820312 4.550781 -0.15625 4.53125 -0.21875 C 4.507812 -0.289062 4.488281 -0.375 4.46875 -0.46875 C 4.445312 -0.570312 4.429688 -0.703125 4.421875 -0.859375 C 4.421875 -1.023438 4.421875 -1.226562 4.421875 -1.46875 L 4.421875 -3.34375 C 4.421875 -3.894531 4.320312 -4.285156 4.125 -4.515625 C 3.9375 -4.742188 3.628906 -4.859375 3.203125 -4.859375 L 2.546875 -4.859375 L 2.546875 0 L 0.6875 0 L 0.6875 -11.921875 L 3.515625 -11.921875 C 4.484375 -11.921875 5.1875 -11.691406 5.625 -11.234375 C 6.0625 -10.785156 6.28125 -10.101562 6.28125 -9.1875 L 6.28125 -8.25 C 6.28125 -7.019531 5.875 -6.210938 5.0625 -5.828125 C 5.539062 -5.628906 5.863281 -5.3125 6.03125 -4.875 C 6.207031 -4.4375 6.296875 -3.90625 6.296875 -3.28125 L 6.296875 -1.453125 C 6.296875 -1.148438 6.304688 -0.890625 6.328125 -0.671875 C 6.359375 -0.453125 6.414062 -0.226562 6.5 0 Z M 2.546875 -10.21875 L 2.546875 -6.5625 L 3.28125 -6.5625 C 3.632812 -6.5625 3.910156 -6.648438 4.109375 -6.828125 C 4.304688 -7.015625 4.40625 -7.34375 4.40625 -7.8125 L 4.40625 -9 C 4.40625 -9.425781 4.328125 -9.734375 4.171875 -9.921875 C 4.023438 -10.117188 3.785156 -10.21875 3.453125 -10.21875 Z M 2.546875 -10.21875 "/></g></g></g><g fill="#ffffff" fill-opacity="1"><g transform="translate(128.345246, 115.524145)"><g><path d="M 3.484375 -6.640625 L 6.109375 -6.640625 L 6.109375 -2.859375 C 6.109375 -1.890625 5.875 -1.144531 5.40625 -0.625 C 4.9375 -0.113281 4.242188 0.140625 3.328125 0.140625 C 2.398438 0.140625 1.703125 -0.113281 1.234375 -0.625 C 0.765625 -1.144531 0.53125 -1.890625 0.53125 -2.859375 L 0.53125 -9.0625 C 0.53125 -10.03125 0.765625 -10.769531 1.234375 -11.28125 C 1.703125 -11.800781 2.398438 -12.0625 3.328125 -12.0625 C 4.242188 -12.0625 4.9375 -11.800781 5.40625 -11.28125 C 5.875 -10.769531 6.109375 -10.03125 6.109375 -9.0625 L 6.109375 -7.90625 L 4.34375 -7.90625 L 4.34375 -9.1875 C 4.34375 -9.613281 4.253906 -9.914062 4.078125 -10.09375 C 3.898438 -10.269531 3.664062 -10.359375 3.375 -10.359375 C 3.070312 -10.359375 2.832031 -10.269531 2.65625 -10.09375 C 2.488281 -9.914062 2.40625 -9.613281 2.40625 -9.1875 L 2.40625 -2.734375 C 2.40625 -2.304688 2.488281 -2.003906 2.65625 -1.828125 C 2.832031 -1.660156 3.070312 -1.578125 3.375 -1.578125 C 3.664062 -1.578125 3.898438 -1.660156 4.078125 -1.828125 C 4.253906 -2.003906 4.34375 -2.304688 4.34375 -2.734375 L 4.34375 -4.9375 L 3.484375 -4.9375 Z M 3.484375 -6.640625 "/></g></g></g><g fill="#ffffff" fill-opacity="1"><g transform="translate(137.812021, 115.524145)"><g><path d="M 2.546875 -6.890625 L 5.125 -6.890625 L 5.125 -5.1875 L 2.546875 -5.1875 L 2.546875 -1.703125 L 5.796875 -1.703125 L 5.796875 0 L 0.6875 0 L 0.6875 -11.921875 L 5.796875 -11.921875 L 5.796875 -10.21875 L 2.546875 -10.21875 Z M 2.546875 -6.890625 "/></g></g></g><g fill="#ffffff" fill-opacity="1"><g transform="translate(146.904292, 115.524145)"><g><path d="M 0.140625 -11.921875 L 5.921875 -11.921875 L 5.921875 -10.21875 L 3.96875 -10.21875 L 3.96875 0 L 2.09375 0 L 2.09375 -10.21875 L 0.140625 -10.21875 Z M 0.140625 -11.921875 "/></g></g></g><g fill="#ffffff" fill-opacity="1"><g transform="translate(155.792283, 115.524145)"><g><path d="M 2.546875 -6.890625 L 5.125 -6.890625 L 5.125 -5.1875 L 2.546875 -5.1875 L 2.546875 -1.703125 L 5.796875 -1.703125 L 5.796875 0 L 0.6875 0 L 0.6875 -11.921875 L 5.796875 -11.921875 L 5.796875 -10.21875 L 2.546875 -10.21875 Z M 2.546875 -6.890625 "/></g></g></g><g fill="#ffffff" fill-opacity="1"><g transform="translate(164.884554, 115.524145)"><g><path d="M 0.6875 -11.921875 L 2.546875 -11.921875 L 2.546875 -1.703125 L 5.640625 -1.703125 L 5.640625 0 L 0.6875 0 Z M 0.6875 -11.921875 "/></g></g></g><g fill="#ffffff" fill-opacity="1"><g transform="translate(173.483144, 115.524145)"><g><path d="M 0.6875 -11.921875 L 2.546875 -11.921875 L 2.546875 0 L 0.6875 0 Z M 0.6875 -11.921875 "/></g></g></g><g fill="#ffffff" fill-opacity="1"><g transform="translate(179.545254, 115.524145)"><g><path d="M 0.171875 -1.703125 C 0.273438 -1.691406 0.382812 -1.6875 0.5 -1.6875 C 0.613281 -1.6875 0.71875 -1.6875 0.8125 -1.6875 C 1.113281 -1.6875 1.367188 -1.757812 1.578125 -1.90625 C 1.785156 -2.050781 1.890625 -2.359375 1.890625 -2.828125 L 1.890625 -11.921875 L 3.765625 -11.921875 L 3.765625 -2.96875 C 3.765625 -2.363281 3.691406 -1.867188 3.546875 -1.484375 C 3.398438 -1.097656 3.203125 -0.789062 2.953125 -0.5625 C 2.703125 -0.34375 2.410156 -0.1875 2.078125 -0.09375 C 1.753906 -0.0078125 1.421875 0.03125 1.078125 0.03125 C 0.898438 0.03125 0.742188 0.03125 0.609375 0.03125 C 0.472656 0.03125 0.328125 0.0195312 0.171875 0 Z M 0.171875 -1.703125 "/></g></g></g><g fill="#ffffff" fill-opacity="1"><g transform="translate(186.730904, 115.524145)"><g><path d="M 3.140625 -4.75 L 2.546875 -3.65625 L 2.546875 0 L 0.6875 0 L 0.6875 -11.921875 L 2.546875 -11.921875 L 2.546875 -6.734375 L 5 -11.921875 L 6.875 -11.921875 L 4.28125 -6.609375 L 6.875 0 L 4.953125 0 Z M 3.140625 -4.75 "/></g></g></g><g fill="#ffffff" fill-opacity="1"><g transform="translate(196.606242, 115.524145)"><g/></g></g><g fill="#ffffff" fill-opacity="1"><g transform="translate(202.072537, 115.524145)"><g><path d="M 3.140625 -4.75 L 2.546875 -3.65625 L 2.546875 0 L 0.6875 0 L 0.6875 -11.921875 L 2.546875 -11.921875 L 2.546875 -6.734375 L 5 -11.921875 L 6.875 -11.921875 L 4.28125 -6.609375 L 6.875 0 L 4.953125 0 Z M 3.140625 -4.75 "/></g></g></g><g fill="#ffffff" fill-opacity="1"><g transform="translate(211.947875, 115.524145)"><g><path d="M 2.40625 -2.734375 C 2.40625 -2.304688 2.488281 -2.003906 2.65625 -1.828125 C 2.832031 -1.648438 3.070312 -1.5625 3.375 -1.5625 C 3.664062 -1.5625 3.898438 -1.648438 4.078125 -1.828125 C 4.253906 -2.003906 4.34375 -2.304688 4.34375 -2.734375 L 4.34375 -9.1875 C 4.34375 -9.613281 4.253906 -9.914062 4.078125 -10.09375 C 3.898438 -10.269531 3.664062 -10.359375 3.375 -10.359375 C 3.070312 -10.359375 2.832031 -10.269531 2.65625 -10.09375 C 2.488281 -9.914062 2.40625 -9.613281 2.40625 -9.1875 Z M 0.53125 -9.0625 C 0.53125 -10.03125 0.773438 -10.769531 1.265625 -11.28125 C 1.753906 -11.800781 2.457031 -12.0625 3.375 -12.0625 C 4.289062 -12.0625 4.992188 -11.800781 5.484375 -11.28125 C 5.972656 -10.769531 6.21875 -10.03125 6.21875 -9.0625 L 6.21875 -2.859375 C 6.21875 -1.890625 5.972656 -1.144531 5.484375 -0.625 C 4.992188 -0.113281 4.289062 0.140625 3.375 0.140625 C 2.457031 0.140625 1.753906 -0.113281 1.265625 -0.625 C 0.773438 -1.144531 0.53125 -1.890625 0.53125 -2.859375 Z M 0.53125 -9.0625 "/></g></g></g><g fill="#ffffff" fill-opacity="1"><g transform="translate(221.516806, 115.524145)"><g><path d="M 2.546875 -6.625 L 4.96875 -6.625 L 4.96875 -4.921875 L 2.546875 -4.921875 L 2.546875 0 L 0.6875 0 L 0.6875 -11.921875 L 5.640625 -11.921875 L 5.640625 -10.21875 L 2.546875 -10.21875 Z M 2.546875 -6.625 "/></g></g></g><g fill="#ffffff" fill-opacity="1"><g transform="translate(230.200522, 115.524145)"><g><path d="M 2.546875 -6.625 L 4.96875 -6.625 L 4.96875 -4.921875 L 2.546875 -4.921875 L 2.546875 0 L 0.6875 0 L 0.6875 -11.921875 L 5.640625 -11.921875 L 5.640625 -10.21875 L 2.546875 -10.21875 Z M 2.546875 -6.625 "/></g></g></g><g fill="#ffffff" fill-opacity="1"><g transform="translate(238.884239, 115.524145)"><g><path d="M 0.6875 -11.921875 L 2.546875 -11.921875 L 2.546875 0 L 0.6875 0 Z M 0.6875 -11.921875 "/></g></g></g><g fill="#ffffff" fill-opacity="1"><g transform="translate(244.946356, 115.524145)"><g><path d="M 2.546875 -6.890625 L 5.125 -6.890625 L 5.125 -5.1875 L 2.546875 -5.1875 L 2.546875 -1.703125 L 5.796875 -1.703125 L 5.796875 0 L 0.6875 0 L 0.6875 -11.921875 L 5.796875 -11.921875 L 5.796875 -10.21875 L 2.546875 -10.21875 Z M 2.546875 -6.890625 "/></g></g></g><g fill="#ffffff" fill-opacity="1"><g transform="translate(254.038636, 115.524145)"><g><path d="M 6.109375 -4.4375 L 6.109375 -2.859375 C 6.109375 -1.890625 5.875 -1.144531 5.40625 -0.625 C 4.9375 -0.113281 4.242188 0.140625 3.328125 0.140625 C 2.398438 0.140625 1.703125 -0.113281 1.234375 -0.625 C 0.765625 -1.144531 0.53125 -1.890625 0.53125 -2.859375 L 0.53125 -9.0625 C 0.53125 -10.03125 0.765625 -10.769531 1.234375 -11.28125 C 1.703125 -11.800781 2.398438 -12.0625 3.328125 -12.0625 C 4.242188 -12.0625 4.9375 -11.800781 5.40625 -11.28125 C 5.875 -10.769531 6.109375 -10.03125 6.109375 -9.0625 L 6.109375 -7.90625 L 4.34375 -7.90625 L 4.34375 -9.1875 C 4.34375 -9.613281 4.253906 -9.914062 4.078125 -10.09375 C 3.898438 -10.269531 3.664062 -10.359375 3.375 -10.359375 C 3.070312 -10.359375 2.832031 -10.269531 2.65625 -10.09375 C 2.488281 -9.914062 2.40625 -9.613281 2.40625 -9.1875 L 2.40625 -2.734375 C 2.40625 -2.304688 2.488281 -2.003906 2.65625 -1.828125 C 2.832031 -1.660156 3.070312 -1.578125 3.375 -1.578125 C 3.664062 -1.578125 3.898438 -1.660156 4.078125 -1.828125 C 4.253906 -2.003906 4.34375 -2.304688 4.34375 -2.734375 L 4.34375 -4.4375 Z M 6.109375 -4.4375 "/></g></g></g><g fill="#ffffff" fill-opacity="1"><g transform="translate(263.437329, 115.524145)"><g><path d="M 6.75 0 L 4.859375 0 L 4.53125 -2.15625 L 2.234375 -2.15625 L 1.90625 0 L 0.1875 0 L 2.09375 -11.921875 L 4.84375 -11.921875 Z M 2.46875 -3.78125 L 4.28125 -3.78125 L 3.375 -9.8125 Z M 2.46875 -3.78125 "/></g></g></g><g fill="#ffffff" fill-opacity="1"><g transform="translate(273.193512, 115.524145)"><g><path d="M 2.546875 -6.625 L 4.96875 -6.625 L 4.96875 -4.921875 L 2.546875 -4.921875 L 2.546875 0 L 0.6875 0 L 0.6875 -11.921875 L 5.640625 -11.921875 L 5.640625 -10.21875 L 2.546875 -10.21875 Z M 2.546875 -6.625 "/></g></g></g><g fill="#ffffff" fill-opacity="1"><g transform="translate(281.877229, 115.524145)"><g><path d="M 2.546875 -6.890625 L 5.125 -6.890625 L 5.125 -5.1875 L 2.546875 -5.1875 L 2.546875 -1.703125 L 5.796875 -1.703125 L 5.796875 0 L 0.6875 0 L 0.6875 -11.921875 L 5.796875 -11.921875 L 5.796875 -10.21875 L 2.546875 -10.21875 Z M 5.234375 -14.4375 L 3.484375 -12.546875 L 2.234375 -12.546875 L 3.390625 -14.4375 Z M 5.234375 -14.4375 "/></g></g></g><path stroke-linecap="round" transform="matrix(1.015513, 0, 0, 1.022047, 3.980046, 106.155392)" fill="none" stroke-linejoin="miter" d="M 1.500582 1.499059 L 66.942411 1.499059 " stroke="#ffffff" stroke-width="3" stroke-opacity="1" stroke-miterlimit="4"/><path stroke-linecap="round" transform="matrix(1.015513, 0, 0, 1.022047, 293.199567, 106.155392)" fill="none" stroke-linejoin="miter" d="M 1.499823 1.499059 L 66.941652 1.499059 " stroke="#ffffff" stroke-width="3" stroke-opacity="1" stroke-miterlimit="4"/><path stroke-linecap="round" transform="matrix(1.015513, 0, 0, 1.022047, 4.621275, 114.161429)" fill="none" stroke-linejoin="miter" d="M 2.000042 2.001476 L 66.441761 2.001476 " stroke="#ffffff" stroke-width="4" stroke-opacity="1" stroke-miterlimit="4"/><path stroke-linecap="round" transform="matrix(1.015513, 0, 0, 1.022047, 293.840816, 114.161429)" fill="none" stroke-linejoin="miter" d="M 1.999264 2.001476 L 66.444829 2.001476 " stroke="#ffffff" stroke-width="4" stroke-opacity="1" stroke-miterlimit="4"/></svg>