<svg xmlns="http://www.w3.org/2000/svg" xmlns:xlink="http://www.w3.org/1999/xlink" width="500" zoomAndPan="magnify" viewBox="0 0 375 149.999998" height="200" preserveAspectRatio="xMidYMid meet" version="1.0"><defs><g/></defs><rect x="-37.5" width="450" fill="#ffffff" y="-15" height="179.999997" fill-opacity="1"/><rect x="-37.5" width="450" fill="#ffffff" y="-15" height="179.999997" fill-opacity="1"/><g fill="#ffffff" fill-opacity="1"><g transform="translate(113.382969, 82.465296)"><g><path d="M 6.65625 0.234375 C 4.875 0.234375 3.515625 -0.3125 2.578125 -1.40625 C 1.640625 -2.507812 1.117188 -4.023438 1.015625 -5.953125 L 3.640625 -6.65625 C 3.722656 -5.289062 3.988281 -4.1875 4.4375 -3.34375 C 4.882812 -2.507812 5.625 -2.09375 6.65625 -2.09375 C 7.425781 -2.09375 8.003906 -2.304688 8.390625 -2.734375 C 8.785156 -3.160156 8.984375 -3.773438 8.984375 -4.578125 C 8.984375 -5.453125 8.800781 -6.175781 8.4375 -6.75 C 8.070312 -7.332031 7.488281 -7.972656 6.6875 -8.671875 L 3.125 -11.8125 C 2.40625 -12.445312 1.882812 -13.125 1.5625 -13.84375 C 1.238281 -14.570312 1.078125 -15.460938 1.078125 -16.515625 C 1.078125 -18.066406 1.519531 -19.269531 2.40625 -20.125 C 3.300781 -20.976562 4.515625 -21.40625 6.046875 -21.40625 C 7.722656 -21.40625 8.988281 -20.957031 9.84375 -20.0625 C 10.707031 -19.175781 11.222656 -17.800781 11.390625 -15.9375 L 8.890625 -15.25 C 8.796875 -16.488281 8.550781 -17.441406 8.15625 -18.109375 C 7.769531 -18.785156 7.066406 -19.125 6.046875 -19.125 C 5.296875 -19.125 4.71875 -18.925781 4.3125 -18.53125 C 3.914062 -18.144531 3.71875 -17.566406 3.71875 -16.796875 C 3.71875 -16.171875 3.820312 -15.640625 4.03125 -15.203125 C 4.238281 -14.773438 4.597656 -14.34375 5.109375 -13.90625 L 8.703125 -10.765625 C 9.628906 -9.941406 10.363281 -9.050781 10.90625 -8.09375 C 11.457031 -7.132812 11.734375 -6.046875 11.734375 -4.828125 C 11.734375 -3.265625 11.257812 -2.03125 10.3125 -1.125 C 9.375 -0.21875 8.15625 0.234375 6.65625 0.234375 Z M 6.65625 0.234375 "/></g></g></g><g fill="#ffffff" fill-opacity="1"><g transform="translate(125.775083, 82.465296)"><g><path d="M 1.984375 -21.21875 L 4.90625 -21.21875 L 8.640625 -4.015625 L 12.421875 -21.21875 L 15.296875 -21.21875 L 15.703125 0 L 13.3125 0 L 13.078125 -15.40625 L 9.484375 0 L 7.8125 0 L 4.25 -15.40625 L 4.015625 0 L 1.59375 0 Z M 1.984375 -21.21875 "/></g></g></g><g fill="#ffffff" fill-opacity="1"><g transform="translate(143.066407, 82.465296)"><g><path d="M 5 -21.21875 L 7.859375 -21.21875 L 12.390625 0 L 9.59375 0 L 8.625 -5.34375 L 4.296875 -5.34375 L 3.28125 0 L 0.5 0 Z M 8.234375 -7.46875 L 6.453125 -17.03125 L 4.6875 -7.46875 Z M 8.234375 -7.46875 "/></g></g></g><g fill="#ffffff" fill-opacity="1"><g transform="translate(155.956299, 82.465296)"><g><path d="M 5 -21.21875 L 7.859375 -21.21875 L 12.390625 0 L 9.59375 0 L 8.625 -5.34375 L 4.296875 -5.34375 L 3.28125 0 L 0.5 0 Z M 8.234375 -7.46875 L 6.453125 -17.03125 L 4.6875 -7.46875 Z M 8.234375 -7.46875 "/></g></g></g><g fill="#ffffff" fill-opacity="1"><g transform="translate(168.846192, 82.465296)"><g><path d="M 1.65625 -21.21875 L 4.609375 -21.21875 L 4.609375 -11.21875 L 9.484375 -21.21875 L 12.234375 -21.21875 L 8.046875 -11.875 L 12.921875 0 L 10.03125 0 L 5.96875 -9.953125 L 4.609375 -7.5 L 4.609375 0 L 1.65625 0 Z M 1.65625 -21.21875 "/></g></g></g><g fill="#ffffff" fill-opacity="1"><g transform="translate(181.814683, 82.465296)"><g><path d="M 1.984375 -21.21875 L 4.90625 -21.21875 L 8.640625 -4.015625 L 12.421875 -21.21875 L 15.296875 -21.21875 L 15.703125 0 L 13.3125 0 L 13.078125 -15.40625 L 9.484375 0 L 7.8125 0 L 4.25 -15.40625 L 4.015625 0 L 1.59375 0 Z M 1.984375 -21.21875 "/></g></g></g><g fill="#ffffff" fill-opacity="1"><g transform="translate(199.106007, 82.465296)"><g><path d="M 5 -21.21875 L 7.859375 -21.21875 L 12.390625 0 L 9.59375 0 L 8.625 -5.34375 L 4.296875 -5.34375 L 3.28125 0 L 0.5 0 Z M 8.234375 -7.46875 L 6.453125 -17.03125 L 4.6875 -7.46875 Z M 8.234375 -7.46875 "/></g></g></g><g fill="#ffffff" fill-opacity="1"><g transform="translate(211.995899, 82.465296)"><g><path d="M 1.65625 -21.21875 L 4.609375 -21.21875 L 4.609375 -11.21875 L 9.484375 -21.21875 L 12.234375 -21.21875 L 8.046875 -11.875 L 12.921875 0 L 10.03125 0 L 5.96875 -9.953125 L 4.609375 -7.5 L 4.609375 0 L 1.65625 0 Z M 1.65625 -21.21875 "/></g></g></g><g fill="#ffffff" fill-opacity="1"><g transform="translate(224.964397, 82.465296)"><g><path d="M 1.65625 -21.21875 L 9.875 -21.21875 L 9.875 -19.03125 L 4.609375 -19.03125 L 4.609375 -12 L 8.890625 -12 L 8.890625 -9.90625 L 4.609375 -9.90625 L 4.609375 -2.125 L 9.9375 -2.125 L 9.9375 0 L 1.65625 0 Z M 1.65625 -21.21875 "/></g></g></g><g fill="#ffffff" fill-opacity="1"><g transform="translate(235.627376, 82.465296)"><g><path d="M 1.65625 -21.21875 L 5.921875 -21.21875 C 8.066406 -21.21875 9.640625 -20.773438 10.640625 -19.890625 C 11.648438 -19.015625 12.15625 -17.582031 12.15625 -15.59375 C 12.15625 -12.863281 11.28125 -11.210938 9.53125 -10.640625 L 12.546875 0 L 9.6875 0 L 6.921875 -9.953125 L 4.609375 -9.953125 L 4.609375 0 L 1.65625 0 Z M 5.734375 -12.078125 C 7.015625 -12.078125 7.925781 -12.328125 8.46875 -12.828125 C 9.019531 -13.335938 9.296875 -14.257812 9.296875 -15.59375 C 9.296875 -16.46875 9.195312 -17.148438 9 -17.640625 C 8.8125 -18.140625 8.472656 -18.507812 7.984375 -18.75 C 7.503906 -18.988281 6.816406 -19.109375 5.921875 -19.109375 L 4.609375 -19.109375 L 4.609375 -12.078125 Z M 5.734375 -12.078125 "/></g></g></g><g fill="#ffffff" fill-opacity="1"><g transform="translate(249.224652, 82.465296)"><g><path d="M 6.65625 0.234375 C 4.875 0.234375 3.515625 -0.3125 2.578125 -1.40625 C 1.640625 -2.507812 1.117188 -4.023438 1.015625 -5.953125 L 3.640625 -6.65625 C 3.722656 -5.289062 3.988281 -4.1875 4.4375 -3.34375 C 4.882812 -2.507812 5.625 -2.09375 6.65625 -2.09375 C 7.425781 -2.09375 8.003906 -2.304688 8.390625 -2.734375 C 8.785156 -3.160156 8.984375 -3.773438 8.984375 -4.578125 C 8.984375 -5.453125 8.800781 -6.175781 8.4375 -6.75 C 8.070312 -7.332031 7.488281 -7.972656 6.6875 -8.671875 L 3.125 -11.8125 C 2.40625 -12.445312 1.882812 -13.125 1.5625 -13.84375 C 1.238281 -14.570312 1.078125 -15.460938 1.078125 -16.515625 C 1.078125 -18.066406 1.519531 -19.269531 2.40625 -20.125 C 3.300781 -20.976562 4.515625 -21.40625 6.046875 -21.40625 C 7.722656 -21.40625 8.988281 -20.957031 9.84375 -20.0625 C 10.707031 -19.175781 11.222656 -17.800781 11.390625 -15.9375 L 8.890625 -15.25 C 8.796875 -16.488281 8.550781 -17.441406 8.15625 -18.109375 C 7.769531 -18.785156 7.066406 -19.125 6.046875 -19.125 C 5.296875 -19.125 4.71875 -18.925781 4.3125 -18.53125 C 3.914062 -18.144531 3.71875 -17.566406 3.71875 -16.796875 C 3.71875 -16.171875 3.820312 -15.640625 4.03125 -15.203125 C 4.238281 -14.773438 4.597656 -14.34375 5.109375 -13.90625 L 8.703125 -10.765625 C 9.628906 -9.941406 10.363281 -9.050781 10.90625 -8.09375 C 11.457031 -7.132812 11.734375 -6.046875 11.734375 -4.828125 C 11.734375 -3.265625 11.257812 -2.03125 10.3125 -1.125 C 9.375 -0.21875 8.15625 0.234375 6.65625 0.234375 Z M 6.65625 0.234375 "/></g></g></g><g fill="#ffffff" fill-opacity="1"><g transform="translate(144.649617, 91.754651)"><g><path d="M 1 -1.140625 C 1 -0.953125 1.035156 -0.820312 1.109375 -0.75 C 1.179688 -0.675781 1.273438 -0.640625 1.390625 -0.640625 C 1.515625 -0.640625 1.613281 -0.675781 1.6875 -0.75 C 1.757812 -0.820312 1.796875 -0.953125 1.796875 -1.140625 L 1.796875 -3.796875 C 1.796875 -3.972656 1.757812 -4.097656 1.6875 -4.171875 C 1.613281 -4.242188 1.515625 -4.28125 1.390625 -4.28125 C 1.273438 -4.28125 1.179688 -4.242188 1.109375 -4.171875 C 1.035156 -4.097656 1 -3.972656 1 -3.796875 Z M 0.21875 -3.75 C 0.21875 -4.144531 0.316406 -4.445312 0.515625 -4.65625 C 0.722656 -4.875 1.015625 -4.984375 1.390625 -4.984375 C 1.773438 -4.984375 2.066406 -4.875 2.265625 -4.65625 C 2.472656 -4.445312 2.578125 -4.144531 2.578125 -3.75 L 2.578125 -1.1875 C 2.578125 -0.78125 2.472656 -0.46875 2.265625 -0.25 C 2.066406 -0.0390625 1.773438 0.0625 1.390625 0.0625 C 1.015625 0.0625 0.722656 -0.0390625 0.515625 -0.25 C 0.316406 -0.46875 0.21875 -0.78125 0.21875 -1.1875 Z M 0.21875 -3.75 "/></g></g></g><g fill="#ffffff" fill-opacity="1"><g transform="translate(148.605876, 91.754651)"><g><path d="M 0.96875 -3.578125 L 0.96875 0 L 0.28125 0 L 0.28125 -4.9375 L 1.25 -4.9375 L 2.046875 -1.984375 L 2.046875 -4.9375 L 2.734375 -4.9375 L 2.734375 0 L 1.9375 0 Z M 0.96875 -3.578125 "/></g></g></g><g fill="#ffffff" fill-opacity="1"><g transform="translate(152.780323, 91.754651)"><g><path d="M 1.453125 -0.90625 L 2.046875 -4.9375 L 2.75 -4.9375 L 2 0 L 0.84375 0 L 0.078125 -4.9375 L 0.859375 -4.9375 Z M 1.453125 -0.90625 "/></g></g></g><g fill="#ffffff" fill-opacity="1"><g transform="translate(156.778809, 91.754651)"><g><path d="M 1.0625 -2.859375 L 2.125 -2.859375 L 2.125 -2.15625 L 1.0625 -2.15625 L 1.0625 -0.703125 L 2.390625 -0.703125 L 2.390625 0 L 0.28125 0 L 0.28125 -4.9375 L 2.390625 -4.9375 L 2.390625 -4.234375 L 1.0625 -4.234375 Z M 1.0625 -2.859375 "/></g></g></g><g fill="#ffffff" fill-opacity="1"><g transform="translate(160.537997, 91.754651)"><g><path d="M 1.90625 0 C 1.894531 -0.03125 1.882812 -0.0625 1.875 -0.09375 C 1.863281 -0.125 1.851562 -0.160156 1.84375 -0.203125 C 1.84375 -0.242188 1.835938 -0.296875 1.828125 -0.359375 C 1.828125 -0.421875 1.828125 -0.503906 1.828125 -0.609375 L 1.828125 -1.375 C 1.828125 -1.601562 1.785156 -1.765625 1.703125 -1.859375 C 1.628906 -1.960938 1.503906 -2.015625 1.328125 -2.015625 L 1.0625 -2.015625 L 1.0625 0 L 0.28125 0 L 0.28125 -4.9375 L 1.453125 -4.9375 C 1.859375 -4.9375 2.148438 -4.84375 2.328125 -4.65625 C 2.503906 -4.46875 2.59375 -4.179688 2.59375 -3.796875 L 2.59375 -3.40625 C 2.59375 -2.90625 2.425781 -2.570312 2.09375 -2.40625 C 2.289062 -2.332031 2.425781 -2.203125 2.5 -2.015625 C 2.570312 -1.835938 2.609375 -1.617188 2.609375 -1.359375 L 2.609375 -0.59375 C 2.609375 -0.476562 2.613281 -0.375 2.625 -0.28125 C 2.632812 -0.1875 2.65625 -0.09375 2.6875 0 Z M 1.0625 -4.234375 L 1.0625 -2.71875 L 1.359375 -2.71875 C 1.503906 -2.71875 1.617188 -2.753906 1.703125 -2.828125 C 1.785156 -2.898438 1.828125 -3.035156 1.828125 -3.234375 L 1.828125 -3.71875 C 1.828125 -3.894531 1.796875 -4.023438 1.734375 -4.109375 C 1.671875 -4.191406 1.570312 -4.234375 1.4375 -4.234375 Z M 1.0625 -4.234375 "/></g></g></g><g fill="#ffffff" fill-opacity="1"><g transform="translate(164.536482, 91.754651)"><g><path d="M 1.4375 -2.75 L 2.53125 -2.75 L 2.53125 -1.1875 C 2.53125 -0.78125 2.429688 -0.46875 2.234375 -0.25 C 2.035156 -0.0390625 1.75 0.0625 1.375 0.0625 C 0.988281 0.0625 0.695312 -0.0390625 0.5 -0.25 C 0.3125 -0.46875 0.21875 -0.78125 0.21875 -1.1875 L 0.21875 -3.75 C 0.21875 -4.144531 0.3125 -4.445312 0.5 -4.65625 C 0.695312 -4.875 0.988281 -4.984375 1.375 -4.984375 C 1.75 -4.984375 2.035156 -4.875 2.234375 -4.65625 C 2.429688 -4.445312 2.53125 -4.144531 2.53125 -3.75 L 2.53125 -3.265625 L 1.796875 -3.265625 L 1.796875 -3.796875 C 1.796875 -3.972656 1.757812 -4.097656 1.6875 -4.171875 C 1.613281 -4.242188 1.515625 -4.28125 1.390625 -4.28125 C 1.273438 -4.28125 1.179688 -4.242188 1.109375 -4.171875 C 1.035156 -4.097656 1 -3.972656 1 -3.796875 L 1 -1.140625 C 1 -0.953125 1.035156 -0.820312 1.109375 -0.75 C 1.179688 -0.6875 1.273438 -0.65625 1.390625 -0.65625 C 1.515625 -0.65625 1.613281 -0.6875 1.6875 -0.75 C 1.757812 -0.820312 1.796875 -0.953125 1.796875 -1.140625 L 1.796875 -2.046875 L 1.4375 -2.046875 Z M 1.4375 -2.75 "/></g></g></g><g fill="#ffffff" fill-opacity="1"><g transform="translate(168.450507, 91.754651)"><g><path d="M 1.0625 -2.859375 L 2.125 -2.859375 L 2.125 -2.15625 L 1.0625 -2.15625 L 1.0625 -0.703125 L 2.390625 -0.703125 L 2.390625 0 L 0.28125 0 L 0.28125 -4.9375 L 2.390625 -4.9375 L 2.390625 -4.234375 L 1.0625 -4.234375 Z M 1.0625 -2.859375 "/></g></g></g><g fill="#ffffff" fill-opacity="1"><g transform="translate(172.209695, 91.754651)"><g><path d="M 0.0625 -4.9375 L 2.453125 -4.9375 L 2.453125 -4.234375 L 1.640625 -4.234375 L 1.640625 0 L 0.859375 0 L 0.859375 -4.234375 L 0.0625 -4.234375 Z M 0.0625 -4.9375 "/></g></g></g><g fill="#ffffff" fill-opacity="1"><g transform="translate(175.884422, 91.754651)"><g><path d="M 1.0625 -2.859375 L 2.125 -2.859375 L 2.125 -2.15625 L 1.0625 -2.15625 L 1.0625 -0.703125 L 2.390625 -0.703125 L 2.390625 0 L 0.28125 0 L 0.28125 -4.9375 L 2.390625 -4.9375 L 2.390625 -4.234375 L 1.0625 -4.234375 Z M 1.0625 -2.859375 "/></g></g></g><g fill="#ffffff" fill-opacity="1"><g transform="translate(179.643609, 91.754651)"><g><path d="M 0.28125 -4.9375 L 1.0625 -4.9375 L 1.0625 -0.703125 L 2.328125 -0.703125 L 2.328125 0 L 0.28125 0 Z M 0.28125 -4.9375 "/></g></g></g><g fill="#ffffff" fill-opacity="1"><g transform="translate(183.198685, 91.754651)"><g><path d="M 0.28125 -4.9375 L 1.0625 -4.9375 L 1.0625 0 L 0.28125 0 Z M 0.28125 -4.9375 "/></g></g></g><g fill="#ffffff" fill-opacity="1"><g transform="translate(185.705056, 91.754651)"><g><path d="M 0.078125 -0.703125 C 0.117188 -0.703125 0.160156 -0.703125 0.203125 -0.703125 C 0.253906 -0.703125 0.300781 -0.703125 0.34375 -0.703125 C 0.457031 -0.703125 0.554688 -0.726562 0.640625 -0.78125 C 0.734375 -0.84375 0.78125 -0.972656 0.78125 -1.171875 L 0.78125 -4.9375 L 1.5625 -4.9375 L 1.5625 -1.21875 C 1.5625 -0.976562 1.53125 -0.773438 1.46875 -0.609375 C 1.40625 -0.453125 1.320312 -0.328125 1.21875 -0.234375 C 1.113281 -0.140625 0.992188 -0.0703125 0.859375 -0.03125 C 0.722656 0 0.582031 0.015625 0.4375 0.015625 C 0.375 0.015625 0.3125 0.015625 0.25 0.015625 C 0.195312 0.015625 0.140625 0.0078125 0.078125 0 Z M 0.078125 -0.703125 "/></g></g></g><g fill="#ffffff" fill-opacity="1"><g transform="translate(188.675953, 91.754651)"><g><path d="M 1.296875 -1.96875 L 1.0625 -1.515625 L 1.0625 0 L 0.28125 0 L 0.28125 -4.9375 L 1.0625 -4.9375 L 1.0625 -2.78125 L 2.078125 -4.9375 L 2.84375 -4.9375 L 1.765625 -2.734375 L 2.84375 0 L 2.046875 0 Z M 1.296875 -1.96875 "/></g></g></g><g fill="#ffffff" fill-opacity="1"><g transform="translate(192.758898, 91.754651)"><g/></g></g><g fill="#ffffff" fill-opacity="1"><g transform="translate(195.01893, 91.754651)"><g><path d="M 1.296875 -1.96875 L 1.0625 -1.515625 L 1.0625 0 L 0.28125 0 L 0.28125 -4.9375 L 1.0625 -4.9375 L 1.0625 -2.78125 L 2.078125 -4.9375 L 2.84375 -4.9375 L 1.765625 -2.734375 L 2.84375 0 L 2.046875 0 Z M 1.296875 -1.96875 "/></g></g></g><g fill="#ffffff" fill-opacity="1"><g transform="translate(199.101875, 91.754651)"><g><path d="M 1 -1.140625 C 1 -0.953125 1.035156 -0.820312 1.109375 -0.75 C 1.179688 -0.675781 1.273438 -0.640625 1.390625 -0.640625 C 1.515625 -0.640625 1.613281 -0.675781 1.6875 -0.75 C 1.757812 -0.820312 1.796875 -0.953125 1.796875 -1.140625 L 1.796875 -3.796875 C 1.796875 -3.972656 1.757812 -4.097656 1.6875 -4.171875 C 1.613281 -4.242188 1.515625 -4.28125 1.390625 -4.28125 C 1.273438 -4.28125 1.179688 -4.242188 1.109375 -4.171875 C 1.035156 -4.097656 1 -3.972656 1 -3.796875 Z M 0.21875 -3.75 C 0.21875 -4.144531 0.316406 -4.445312 0.515625 -4.65625 C 0.722656 -4.875 1.015625 -4.984375 1.390625 -4.984375 C 1.773438 -4.984375 2.066406 -4.875 2.265625 -4.65625 C 2.472656 -4.445312 2.578125 -4.144531 2.578125 -3.75 L 2.578125 -1.1875 C 2.578125 -0.78125 2.472656 -0.46875 2.265625 -0.25 C 2.066406 -0.0390625 1.773438 0.0625 1.390625 0.0625 C 1.015625 0.0625 0.722656 -0.0390625 0.515625 -0.25 C 0.316406 -0.46875 0.21875 -0.78125 0.21875 -1.1875 Z M 0.21875 -3.75 "/></g></g></g><g fill="#ffffff" fill-opacity="1"><g transform="translate(203.058137, 91.754651)"><g><path d="M 1.0625 -2.734375 L 2.0625 -2.734375 L 2.0625 -2.03125 L 1.0625 -2.03125 L 1.0625 0 L 0.28125 0 L 0.28125 -4.9375 L 2.328125 -4.9375 L 2.328125 -4.234375 L 1.0625 -4.234375 Z M 1.0625 -2.734375 "/></g></g></g><g fill="#ffffff" fill-opacity="1"><g transform="translate(206.648408, 91.754651)"><g><path d="M 1.0625 -2.734375 L 2.0625 -2.734375 L 2.0625 -2.03125 L 1.0625 -2.03125 L 1.0625 0 L 0.28125 0 L 0.28125 -4.9375 L 2.328125 -4.9375 L 2.328125 -4.234375 L 1.0625 -4.234375 Z M 1.0625 -2.734375 "/></g></g></g><g fill="#ffffff" fill-opacity="1"><g transform="translate(210.238678, 91.754651)"><g><path d="M 0.28125 -4.9375 L 1.0625 -4.9375 L 1.0625 0 L 0.28125 0 Z M 0.28125 -4.9375 "/></g></g></g><g fill="#ffffff" fill-opacity="1"><g transform="translate(212.745053, 91.754651)"><g><path d="M 1.0625 -2.859375 L 2.125 -2.859375 L 2.125 -2.15625 L 1.0625 -2.15625 L 1.0625 -0.703125 L 2.390625 -0.703125 L 2.390625 0 L 0.28125 0 L 0.28125 -4.9375 L 2.390625 -4.9375 L 2.390625 -4.234375 L 1.0625 -4.234375 Z M 1.0625 -2.859375 "/></g></g></g><g fill="#ffffff" fill-opacity="1"><g transform="translate(216.504243, 91.754651)"><g><path d="M 2.53125 -1.84375 L 2.53125 -1.1875 C 2.53125 -0.78125 2.429688 -0.46875 2.234375 -0.25 C 2.035156 -0.0390625 1.75 0.0625 1.375 0.0625 C 0.988281 0.0625 0.695312 -0.0390625 0.5 -0.25 C 0.3125 -0.46875 0.21875 -0.78125 0.21875 -1.1875 L 0.21875 -3.75 C 0.21875 -4.144531 0.3125 -4.445312 0.5 -4.65625 C 0.695312 -4.875 0.988281 -4.984375 1.375 -4.984375 C 1.75 -4.984375 2.035156 -4.875 2.234375 -4.65625 C 2.429688 -4.445312 2.53125 -4.144531 2.53125 -3.75 L 2.53125 -3.265625 L 1.796875 -3.265625 L 1.796875 -3.796875 C 1.796875 -3.972656 1.757812 -4.097656 1.6875 -4.171875 C 1.613281 -4.242188 1.515625 -4.28125 1.390625 -4.28125 C 1.273438 -4.28125 1.179688 -4.242188 1.109375 -4.171875 C 1.035156 -4.097656 1 -3.972656 1 -3.796875 L 1 -1.140625 C 1 -0.953125 1.035156 -0.820312 1.109375 -0.75 C 1.179688 -0.6875 1.273438 -0.65625 1.390625 -0.65625 C 1.515625 -0.65625 1.613281 -0.6875 1.6875 -0.75 C 1.757812 -0.820312 1.796875 -0.953125 1.796875 -1.140625 L 1.796875 -1.84375 Z M 2.53125 -1.84375 "/></g></g></g><g fill="#ffffff" fill-opacity="1"><g transform="translate(220.390121, 91.754651)"><g><path d="M 2.796875 0 L 2.015625 0 L 1.875 -0.890625 L 0.921875 -0.890625 L 0.796875 0 L 0.078125 0 L 0.859375 -4.9375 L 2 -4.9375 Z M 1.015625 -1.5625 L 1.765625 -1.5625 L 1.390625 -4.0625 Z M 1.015625 -1.5625 "/></g></g></g><g fill="#ffffff" fill-opacity="1"><g transform="translate(224.423801, 91.754651)"><g><path d="M 1.0625 -2.734375 L 2.0625 -2.734375 L 2.0625 -2.03125 L 1.0625 -2.03125 L 1.0625 0 L 0.28125 0 L 0.28125 -4.9375 L 2.328125 -4.9375 L 2.328125 -4.234375 L 1.0625 -4.234375 Z M 1.0625 -2.734375 "/></g></g></g><g fill="#ffffff" fill-opacity="1"><g transform="translate(228.014072, 91.754651)"><g><path d="M 1.0625 -2.859375 L 2.125 -2.859375 L 2.125 -2.15625 L 1.0625 -2.15625 L 1.0625 -0.703125 L 2.390625 -0.703125 L 2.390625 0 L 0.28125 0 L 0.28125 -4.9375 L 2.390625 -4.9375 L 2.390625 -4.234375 L 1.0625 -4.234375 Z M 2.15625 -5.96875 L 1.4375 -5.1875 L 0.921875 -5.1875 L 1.40625 -5.96875 Z M 2.15625 -5.96875 "/></g></g></g><path stroke-linecap="round" transform="matrix(0.419862, 0, 0, 0.422564, 113.117838, 87.881152)" fill="none" stroke-linejoin="miter" d="M 1.496337 1.501484 L 66.947455 1.501484 " stroke="#ffffff" stroke-width="3" stroke-opacity="1" stroke-miterlimit="4"/><path stroke-linecap="round" transform="matrix(0.419862, 0, 0, 0.422564, 232.695254, 87.881152)" fill="none" stroke-linejoin="miter" d="M 1.498027 1.501484 L 66.939841 1.501484 " stroke="#ffffff" stroke-width="3" stroke-opacity="1" stroke-miterlimit="4"/><path stroke-linecap="round" transform="matrix(0.419862, 0, 0, 0.422564, 113.382969, 91.402518)" fill="none" stroke-linejoin="miter" d="M 1.497515 1.497142 L 66.939329 1.497142 " stroke="#ffffff" stroke-width="3" stroke-opacity="1" stroke-miterlimit="4"/><path stroke-linecap="round" transform="matrix(0.419862, 0, 0, 0.422564, 232.96036, 91.402518)" fill="none" stroke-linejoin="miter" d="M 1.499262 1.497142 L 66.941076 1.497142 " stroke="#ffffff" stroke-width="3" stroke-opacity="1" stroke-miterlimit="4"/></svg>